# xmcd CD database file
#
# Track frame offsets:
#	150
#	11575
#	29816
#	39524
#	49499
#	61926
#	76880
#	91679
#	108381
#	118015
#	128018
#	139989
#	152321
#	165138
#
# Disc length: 2433 seconds
#
# Revision: 0
# Processed by: cddbd v1.5.1PL2 Copyright (c) Steve Scherf et al.
# Submitted via: CDex 1.51
#
DISCID=a9097f0e
DTITLE=Lisa Dames and Fringe Benefits - The Music of Patsy Cline
DYEAR=2001
DGENRE=Country
TTITLE0=Your Cheatin' Heart
TTITLE1=Faded Love
TTITLE2=Come On In
TTITLE3=Gotta Lotta Rhythm
TTITLE4=Seven Lonely Days
TTITLE5=Just a Closer Walk With Thee
TTITLE6=Lovesick Blues
TTITLE7=Leavin' On Your Mind
TTITLE8=Blue Moon of Kentucky
TTITLE9=Back in Baby's Arms
TTITLE10=Sweet Dreams (of You)
TTITLE11=I Fall to Pieces
TTITLE12=Crazy
TTITLE13=Bill Bailey
EXTD=YEAR: 2001
EXTT0=
EXTT1=
EXTT2=
EXTT3=
EXTT4=
EXTT5=
EXTT6=
EXTT7=
EXTT8=
EXTT9=
EXTT10=
EXTT11=
EXTT12=
EXTT13=
PLAYORDER=
